<svg id="Capa_1" data-name="Capa 1" xmlns="http://www.w3.org/2000/svg" viewBox="0 0 78 78"><defs><style>.cls-1{fill:#a7d1f1;}.cls-2{fill:#71abdd;}.cls-3{fill:#e9edf6;}.cls-4{fill:#fff;}.cls-5{fill:#ffcf02;}.cls-6{fill:#fbb91a;}</style></defs><title>Sin título-2</title><path class="cls-1" d="M297.45,459.7a39,39,0,1,0-39-39A39,39,0,0,0,297.45,459.7Z" transform="translate(-258.45 -381.7)"/><path class="cls-2" d="M336.08,426.15,329,419.07l-.33.66-16.58-16.58-42.59,33.52,22.68,22.68a40,40,0,0,0,5.28.35,39,39,0,0,0,38.63-33.55Z" transform="translate(-258.45 -381.7)"/><path class="cls-3" d="M324.11,429.8a6.48,6.48,0,1,0,0-12.95,8.08,8.08,0,0,0-.85,0,9.47,9.47,0,0,0-8.85-6.06,10,10,0,0,0-1.55.12,13,13,0,1,0-11.54,18.84Z" transform="translate(-258.45 -381.7)"/><path class="cls-4" d="M306.3,414a5.06,5.06,0,0,0,0-10.12,4.92,4.92,0,0,0-.67,0,7.4,7.4,0,0,0-6.91-4.74,8.15,8.15,0,0,0-1.22.09,10.12,10.12,0,1,0-9,14.73Z" transform="translate(-258.45 -381.7)"/><path class="cls-5" d="M299.51,430.73a16.65,16.65,0,1,0-16.65-16.65A16.65,16.65,0,0,0,299.51,430.73Z" transform="translate(-258.45 -381.7)"/><path class="cls-6" d="M299.51,397.43h-.11v33.3h.11a16.65,16.65,0,1,0,0-33.3Z" transform="translate(-258.45 -381.7)"/><path class="cls-4" d="M301,440a6.48,6.48,0,0,0,0-13,6,6,0,0,0-.85.06,9.49,9.49,0,0,0-8.85-6.07,8.76,8.76,0,0,0-1.55.13A13,13,0,1,0,278.21,440Z" transform="translate(-258.45 -381.7)"/><path class="cls-3" d="M301,427.08a6,6,0,0,0-.85.06,9.49,9.49,0,0,0-8.85-6.07,8.76,8.76,0,0,0-1.55.13,13,13,0,0,0-3.65-4.39V440H301a6.48,6.48,0,0,0,0-13Z" transform="translate(-258.45 -381.7)"/></svg>